<?xml version="1.0" encoding="utf-8"?>
<!-- Generator: Adobe Illustrator 26.2.1, SVG Export Plug-In . SVG Version: 6.00 Build 0)  -->
<svg version="1.1" id="Layer_1" xmlns="http://www.w3.org/2000/svg" xmlns:xlink="http://www.w3.org/1999/xlink" x="0px" y="0px"
	 viewBox="0 0 500 500" style="enable-background:new 0 0 500 500;" xml:space="preserve">
<style type="text/css">
	.st0{fill:#BE8072;}
	.st1{fill:#FCF3E0;}
	.st2{fill:#FFE4CC;}
	.st3{fill:#20313A;}
	.st4{fill:none;stroke:#20313A;stroke-miterlimit:10;}
	.st5{fill:#649377;}
</style>
<g id="Layer_3">
	<circle class="st0" cx="65.6" cy="70" r="44.5"/>
</g>
<g id="Layer_2_00000118358363076872365460000009818105287716810143_">
	<path class="st1" d="M83.7,78c1.3,3.2,4.7,8.2,8.4,8.1c4.3-0.1,7.9-6.9,8.8-12.2c2.5-15.2-14.7-30.2-16.5-29.2
		c-0.5,0.3,0.7,2,1,6.6c0.2,3.8-0.4,6.9-1.2,11.3c-1,5-1.6,5.5-1.6,8.4C82.6,72.6,82.5,75.2,83.7,78z"/>
	<path class="st2" d="M39.6,90.7c-1.5,5.3-0.3,6.9-2.1,10.1c-0.4,0.7-0.9,1.5-0.9,2.6c0.1,1.3,0.9,2.7,2.2,3.2
		c0.8,0.3,1.2-0.1,2,0.2c1.3,0.5,1.7,2,2,2.7c1.4,2.9,7.6,2.8,11.5,2.9c8.8,0.2,6.5,1.4,15.3,1.5c0,0,16.1,0.3,21.2-4.2
		c0.1-0.1,0.8-0.7,1.9-1.7c1.5-1.2,1.4-1.1,1.7-1.4c1-1,0.6-1.4,2-3.7c0.5-0.8,0.7-1.2,0.8-1.8c0-0.8-0.4-1.5-0.5-1.6
		c-1.3-1.9-3.1-8.8-3.8-10.7c-2.2-5.4-14-14-27.9-13.8c-9.8,0.1-20.8,4.7-23.7,11.1C40.2,88.4,39.6,90.7,39.6,90.7z"/>
	<g>
		<path class="st3" d="M101.9,66c-0.7-3.7-2.6-6.9-4.9-9.8c-0.4-0.5-1-0.6-1.5-0.3s-0.6,1-0.2,1.5c0.2,0.4,0.5,0.7,0.8,1
			c2.2,2.8,3.5,5.9,4,9.4c0.7,5.8-0.8,10.9-4.6,15.3c-1.9,2.2-5.2,2-7-0.2c-0.6-0.7-1.1-1.5-1.6-2.2c-1.7-2.5-2.9-5.2-3.1-8.3
			c-0.2-3.1,0.3-6.1,1.2-9c1.5-4.9,1.9-9.8,1.2-14.8c-0.1-1-0.3-2-0.5-3.1c1.6,0.8,2.7,1.9,3.7,3.2c1.1,1.4,2,2.9,3,4.4
			c0.4,0.6,1,0.8,1.5,0.5s0.7-1,0.3-1.6c-1.3-1.9-2.7-3.9-4.1-5.7c-1.3-1.6-2.9-2.7-4.9-3.2c-0.6-0.2-1.1-0.3-1.7-0.6
			c-9.7-4.7-19.7-5.4-29.8-1.6c-2.2,0.8-4.4,1.7-6.6,2.6c-2.1,0.9-3.7,2.4-5,4.2c-2.5,3.6-5,7.3-7.5,10.9c-4.9,7.2-4.9,17,0.1,24.1
			c1.3,1.9,2.7,3.6,5.1,4.1c-0.3,0.9-0.6,1.8-0.8,2.6c-0.3,1.5-0.5,3-0.8,4.6c-0.4,2-1,4-1.9,5.9c-0.4,0.9-0.2,1.8,0.4,2.3
			c0.7-0.8,1.4-1.6,2.3-2.3c-0.1,0-0.1-0.1-0.2-0.1c1-2.3,1.5-4.9,2-7.5c0.3-1.6,0.8-3.2,1.3-4.7c0.1-0.2,0.3-0.5,0.5-0.5
			c0.9-0.3,1.7-0.6,2.6-0.8c1.2,1,2.4,2.1,3.6,3.1c0.7,0.6,1.5,0.7,2.3,0.5c0.4-0.1,0.8-0.4,1.2-0.6c0.1,0.1,0.2,0.2,0.3,0.4
			c1.2,1.6,2.8,3,4.4,4.1c1,0.7,2,0.7,3.1,0.1c0.1-0.1,0.3-0.2,0.5-0.3c0.2,0.2,0.3,0.4,0.4,0.6c1.2,1.6,2.7,2.9,4.4,4
			c1,0.7,2,0.7,3,0c0.6-0.4,1.2-0.8,1.7-1.3c1.2-1,2.3-2,3.5-3c1.4,0.8,2.1,0.8,3.7-0.4c1.1-0.8,2.1-1.8,3.1-2.7
			c0.4-0.4,0.8-0.9,1.1-1.3c1.7,1,2.5,1,4-0.3c1.1-0.9,2.1-1.9,3.1-2.8c0.6,0.2,1.2,0.6,1.9,0.7c0.8,0.1,1.2,0.5,1.4,1.2
			c0.1,0.2,0.2,0.5,0.3,0.7c0.2,0.9,0.4,1.8,0.7,2.7c0.2,0.6,0.7,1,1.2,0.8c0.6-0.2,0.9-0.6,0.9-1.2c0-0.2-0.1-0.5-0.1-0.7
			c-0.3-1.2-0.6-2.3-1-3.5c1.5-0.4,2.7-1.2,3.7-2.4C101.8,79,103.2,72.9,101.9,66z M83.6,87.3c-0.3,0.3-0.6,0.3-0.9,0
			c-0.3-0.2-0.7-0.5-1.1-0.6c-0.9-0.2-1.6,0.2-2.1,0.9c-1.1,1.6-2.5,2.9-4.1,4c-0.4,0.3-0.7,0.3-1.1,0c-1.5-1-2.3-0.9-3.3,0.6
			c-1.1,1.5-2.5,2.7-4,3.8c-0.3,0.2-0.6,0.2-1,0c-1.5-1.1-2.9-2.3-4-3.8c-1-1.3-1.8-1.5-3.2-0.5c-0.4,0.3-0.8,0.3-1.2,0
			c-1.5-1.1-2.8-2.3-3.9-3.8c-0.9-1.3-1.8-1.4-3.1-0.5c-0.4,0.3-0.8,0.4-1.2,0c-1-0.9-2-1.8-3-2.7c0.5-0.7,1-1.2,1.3-1.8
			c1-1.8,2-3.6,2.9-5.4c0.2-0.3,0.1-0.8,0-1.1c-0.2-0.3-0.7-0.6-1-0.5c-0.4,0.1-0.9,0.5-1,0.8c-0.9,2.4-2.2,4.5-3.8,6.4
			c-0.5,0.6-1,1.1-1.7,1.4c-1.8,1-4,0.6-5.4-1c-3.7-4.1-5.3-8.9-4.8-14.4c0.3-3.9,1.8-7.3,4.1-10.5c1.7-2.3,3.2-4.9,4.9-7.3
			c0.9-1.3,1.9-2.6,3-3.8c0.6-0.7,1.5-1.2,2.4-2c0,0.4,0,0.5,0,0.7c-1.2,6-0.9,12,1,17.8c0.8,2.4,1.2,4.9,1.2,7.5
			c0,0.9,0.4,1.5,1.1,1.4c0.7,0,1.1-0.6,1.1-1.5c0-2.9-0.5-5.6-1.3-8.3c-1.8-5.8-2-11.6-0.7-17.5c0.1-0.6,0.4-1,1-1.2
			c5.2-2.4,10.6-3.8,16.4-3.7c5.4,0.1,10.5,1.5,15.4,3.9c0.3,0.1,0.5,0.5,0.6,0.8c1.4,5.8,1.3,11.5-0.4,17.2c-0.8,2.6-1.4,5.2-1.5,8
			c-0.2,4.3,1.2,8.1,3.6,11.6c0.5,0.8,1.1,1.5,1.7,2.4C85.6,85.5,84.6,86.4,83.6,87.3z"/>
		<path class="st3" d="M79.1,75.3c0.1,3.3-1.9,6-5.1,6.9c-0.4,0.1-0.6,0.2-0.7,0.8c-0.1,3.8-3,6.7-6.7,6.7c-3.7,0-6.7-2.9-6.8-6.7
			c0-0.4,0.1-0.6-0.5-0.8c-3.8-1.1-6-4.3-5.1-8.3c1.1-5.3,4.2-9.3,9-11.9c2.5-1.4,5.2-1.2,7.6,0.4c4.2,2.7,7,6.4,8.2,11.3
			c0,0.2,0.1,0.3,0.1,0.5C79.1,74.6,79.1,75,79.1,75.3z M77,75.3c0-0.2,0-0.5-0.1-0.8c0-0.2-0.1-0.5-0.1-0.7c-1.2-4-3.5-7.2-7-9.4
			c-2-1.3-4.1-1.2-6.2,0c-0.5,0.3-1,0.6-1.5,1c-2.7,2.4-4.8,5.1-5.6,8.7s1.5,6.4,5.2,6.3c1.5,0,2.9-0.6,4.1-1.5
			c0.8-0.6,1.1-0.6,1.8,0c1,0.7,2.1,1.2,3.4,1.4C74.3,80.8,77,78.6,77,75.3z M62.1,82.5c-0.1,1.9,0.6,3.4,2.2,4.3
			c1.6,1,3.3,0.9,4.9-0.1c1.4-1,2.1-2.4,2-4.2c-1.6-0.2-3-0.7-4.3-1.5c-0.2-0.1-0.5-0.1-0.6,0C65,81.9,63.6,82.4,62.1,82.5z"/>
		<path class="st3" d="M58.8,60.2c0,0.3,0,0.6,0,0.9c-0.1,0.6-0.5,1-1.1,1s-1-0.4-1.1-1c0-0.6,0-1.2,0-1.8s0.5-1.1,1.1-1.1
			s1,0.5,1,1.1C58.8,59.6,58.8,59.9,58.8,60.2z"/>
		<path class="st1" d="M77,75.3c0,3.4-2.7,5.5-6,5c-1.2-0.2-2.4-0.7-3.4-1.4c-0.8-0.6-1.1-0.6-1.8,0c-1.2,0.9-2.6,1.5-4.1,1.5
			c-3.7,0.1-6-2.6-5.2-6.3c0.8-3.6,3-6.3,5.6-8.7c0.4-0.4,0.9-0.7,1.5-1c2.1-1.2,4.2-1.3,6.2,0c3.5,2.3,5.8,5.4,7,9.4
			c0.1,0.2,0.1,0.5,0.1,0.7C76.9,74.8,76.9,75.1,77,75.3z M66.7,66.5L66.7,66.5c-0.6,0.2-1.2,0.2-1.8,0.3c-2.2,0.4-3.5,1.8-3.6,3.7
			c-0.1,2.7,2.5,5.5,5.2,5.6c2.6,0.1,5.1-2.1,5.4-4.7c0.3-2-0.5-3.4-2.4-4.1C68.7,66.8,67.6,66.7,66.7,66.5z"/>
		<path class="st0" d="M62.1,82.5c1.6-0.2,2.9-0.7,4.2-1.4c0.2-0.1,0.5-0.1,0.6,0c1.3,0.8,2.7,1.3,4.3,1.5c0.1,1.8-0.5,3.2-2,4.2
			c-1.6,1.1-3.3,1.1-4.9,0.1C62.7,85.9,62,84.5,62.1,82.5z"/>
		<path class="st3" d="M66.7,66.5c0.6,0,2,0.3,2.9,0.7c1.8,0.7,2.6,2.2,2.4,4.1c-0.4,2.6-2.9,4.8-5.4,4.7c-2.7-0.1-5.3-2.8-5.2-5.6
			c0.1-1.9,1.4-3.3,3.6-3.7C65.5,66.7,66.1,66.5,66.7,66.5z"/>
		<path class="st2" d="M84.9,82.1c-2.4-3.5-3.8-7.3-3.6-11.6c0.1-2.7,0.7-5.4,1.5-8c1.7-5.7,1.8-11.4,0.4-17.2
			c-0.1-0.3-0.3-0.7-0.6-0.8c-4.8-2.4-9.9-3.8-15.4-3.9c-5.8-0.1-11.2,1.3-16.4,3.7c-0.6,0.3-0.9,0.6-1,1.2
			c-1.3,5.9-1.2,11.7,0.7,17.5c0.9,2.7,1.3,5.5,1.3,8.3c0,0.9-0.4,1.5-1.1,1.5c-0.7,0-1.1-0.5-1.1-1.4c0-2.6-0.4-5.1-1.2-7.5
			c-1.9-5.9-2.2-11.8-1-17.8c0-0.1,0-0.3,0-0.7c-0.9,0.7-1.8,1.2-2.4,2c-1.1,1.2-2.1,2.5-3,3.8c-1.7,2.4-3.2,4.9-4.9,7.3
			c-2.3,3.1-3.8,6.6-4.1,10.5c-0.5,5.5,1.1,10.3,4.8,14.4c1.4,1.5,3.6,1.9,5.4,1c0.6-0.3,1.2-0.8,1.7-1.4c1.6-1.9,2.9-4.1,3.8-6.4
			c0.1-0.4,0.6-0.7,1-0.8c0.3-0.1,0.8,0.2,1,0.5s0.2,0.8,0,1.1c-0.9,1.8-1.9,3.7-2.9,5.4c-0.3,0.6-0.8,1.1-1.3,1.8
			c1,0.9,2,1.8,3,2.7c0.4,0.4,0.7,0.3,1.2,0c1.3-0.9,2.2-0.8,3.1,0.5c1.1,1.5,2.4,2.7,3.9,3.8c0.4,0.3,0.8,0.3,1.2,0
			c1.4-1,2.2-0.8,3.2,0.5c1.1,1.5,2.5,2.8,4,3.8c0.3,0.2,0.6,0.2,1,0c1.5-1.1,2.9-2.3,4-3.8c1-1.4,1.8-1.6,3.3-0.6
			c0.4,0.3,0.7,0.3,1.1,0c1.6-1.1,3-2.4,4.1-4c0.5-0.7,1.2-1.1,2.1-0.9c0.4,0.1,0.7,0.3,1.1,0.6c0.3,0.2,0.6,0.3,0.9,0
			c1-0.9,2-1.8,3.1-2.8C86.1,83.6,85.5,82.9,84.9,82.1z M74.5,59.2c0.1-0.6,0.5-0.9,1.1-1c0.6,0,1,0.3,1.1,0.9c0.1,0.7,0.1,1.3,0,2
			c0,0.6-0.5,1-1.1,1s-1-0.4-1-1c0-0.3,0-0.6,0-0.9l0,0C74.5,59.8,74.4,59.5,74.5,59.2z M74,82.2c-0.4,0.1-0.6,0.2-0.7,0.8
			c-0.1,3.8-3,6.7-6.7,6.7c-3.7,0-6.7-2.9-6.8-6.7c0-0.4,0.1-0.6-0.5-0.8c-3.8-1.1-6-4.3-5.1-8.3c1.1-5.3,4.2-9.3,9-11.9
			c2.5-1.4,5.2-1.2,7.6,0.4c4.2,2.7,7,6.4,8.2,11.3c0,0.2,0.1,0.3,0.1,0.5c0,0.4,0.1,0.8,0.1,1.1C79.2,78.7,77.3,81.3,74,82.2z"/>
	</g>
	<path class="st4" d="M66.7,84.9L66.7,84.9c-0.2,0-0.3-0.1-0.3-0.3v-8.8c0-0.2,0.1-0.3,0.3-0.3h0.1c0.2,0,0.3,0.1,0.3,0.3v8.8
		C66.9,84.7,66.8,84.9,66.7,84.9z"/>
	<ellipse class="st3" cx="76" cy="60.2" rx="3.1" ry="2.6"/>
	<ellipse class="st3" cx="57.7" cy="60.2" rx="3.1" ry="2.6"/>
	<ellipse class="st2" cx="55.9" cy="58.3" rx="1.8" ry="1.9"/>
	<ellipse class="st2" cx="73.8" cy="58.3" rx="1.8" ry="1.9"/>
</g>
<g id="Layer_1_00000121279261119242203630000015303747469300190604_">
	<g>
		<path class="st3" d="M10.8,79.5c0.4-1,1.3-1.5,2.3-1.7c2.2-0.6,4.4-0.4,6.7,0.3c-2.2-14.9,1.5-28,11.5-39.5
			c-0.7-0.7-1.4-1.3-2-1.9c-3.7-3.7-3.7-8.8,0-12.5c1.1-1.1,2.2-2.2,3.3-3.3c1.1-1.1,2.2-1.1,3.3,0c1.3,1.3,2.6,2.5,3.8,3.9
			c0.6,0.7,1.2,1.5,1.6,2.4c0.4,0.8,0.5,1.8,0.8,2.7c0.2-0.1,0.4-0.2,0.6-0.3c2.2-1,4.4-2.2,6.7-3.1c3.7-1.5,5.2-4.5,4.2-8.3
			c-0.3-1-0.1-1.9,0.8-2.6c0.8-0.6,1.6-0.6,2.4,0c0.4,0.3,0.7,0.8,0.9,1.3c0.8,2.1,0.8,4.3,0.2,6.4c-0.1,0.3-0.2,0.5-0.3,0.9
			c1.7-0.2,3.3-0.4,4.9-0.5c5.5-0.4,10.8,0.2,16.1,1.7c1.4,0.4,2.1,1.5,1.8,2.7c-0.3,1.2-1.5,1.8-2.9,1.4c-0.8-0.2-1.5-0.4-2.3-0.6
			c0.4,1.2,0.8,2.3,1.1,3.5c0.2,0.6,0.2,1.3,0.2,2c0,1.1-0.8,1.9-1.9,2s-2-0.5-2.3-1.5c-0.1-0.3-0.1-0.6-0.1-0.8
			c-0.3-3.7-3-6.2-6.6-6.2C55,28,45.6,31.6,37.7,38.7C31.2,44.2,27,51.1,24.8,59.3c-0.1,0.4-0.2,0.8-0.2,1c1.6-0.3,3.3-0.8,5-1
			c1.4-0.2,2.4,0.7,2.5,1.9c0.1,1.3-0.8,2.2-2.2,2.3c-4.1,0.4-6.4,3-6.3,7.1c0.3,20,14.4,36.1,32.3,40.4c0.1,0,0.2,0,0.3,0
			c-0.4-1.1-0.8-2.2-1-3.3c-0.2-0.7-0.2-1.4-0.2-2.1c0-1.1,0.8-1.9,1.9-2c1.1-0.1,2,0.5,2.3,1.6c0.1,0.3,0.1,0.6,0.1,0.8
			c0.3,3.7,3,6.2,6.8,6.2c18.5-0.1,35-12.5,40.2-30.3c0.2-0.8,0.4-1.6,0.6-2.2c-1.7,0.4-3.3,0.8-5,1c-1.4,0.2-2.4-0.7-2.5-1.9
			c-0.1-1.3,0.8-2.3,2.2-2.3c3.2,0,6.5-2.8,6.3-7.1c-0.4-11.9-4.8-22-13.4-30.3c-0.3-0.2-0.5-0.5-0.8-0.7c-0.8-0.9-0.9-2-0.2-2.9
			c0.7-0.9,1.9-1,3-0.3c0.2,0.1,0.3,0.3,0.7,0.5c0.6-0.7,1.2-1.4,1.9-2c3.7-3.7,8.8-3.7,12.5,0c1.1,1.1,2.2,2.2,3.3,3.3
			c1.1,1.1,1.1,2.2,0,3.3c-1.2,1.3-2.5,2.5-3.8,3.8c-1.3,1.2-2,1.5-5.2,2.4c0.1,0.2,0.1,0.3,0.2,0.5c1.1,2.4,2.3,4.7,3.3,7.2
			c1.5,3.4,4.5,5,8.1,4c1.5-0.4,2.6,0.1,3,1.3s-0.3,2.3-1.8,2.8c-2.3,0.7-4.6,0.6-7.2-0.3c1.2,7.2,0.8,14.2-1.1,21
			c-2,6.9-5.5,13-10.4,18.5c0.7,0.7,1.4,1.3,2.1,1.9c3.6,3.7,3.6,8.8,0,12.5c-1,1-2.1,2.1-3.1,3.1c-1.4,1.3-2.4,1.3-3.8,0
			c-1-1-2.1-2.1-3.1-3.1c-1.4-1.4-2.4-3.1-2.6-5.1c0-0.2-0.1-0.3-0.1-0.4c-2.9,1.3-5.8,2.5-8.6,3.8c-2.6,1.3-4,4.4-3.1,7.3
			c0.4,1.5,0.2,2.6-1.1,3.5c-0.4,0-0.9,0-1.3,0c-1-0.4-1.5-1.3-1.7-2.3c-0.6-2.2-0.4-4.4,0.3-6.7c-14.9,2.2-28.1-1.5-39.5-11.6
			c-0.8,0.9-1.5,1.8-2.4,2.6c-3.4,3.1-8.3,3-11.6-0.2c-1.2-1.2-2.4-2.4-3.6-3.6c-1.1-1.1-1.1-2.2,0-3.4c1.2-1.3,2.5-2.5,3.7-3.7
			c1.3-1.2,2.8-2,4.5-2.2c0.2,0,0.5-0.1,0.7-0.2c-0.7-1.4-1.4-2.8-2.1-4.2c-0.7-1.4-1.1-2.9-1.8-4.3c-1.3-2.7-4.4-4.1-7.3-3.2
			c-1.5,0.4-2.6,0.2-3.5-1.1C10.8,80.3,10.8,79.9,10.8,79.5z M34.3,35.5c5.2-4.2,3.7-7.1-0.1-10C30,28.9,29.5,31.6,34.3,35.5z
			 M100.2,38.7c3.8,4.9,6.8,4.1,10,0C106.7,34.1,103.7,34.2,100.2,38.7z M31,101.4c-3.7-4.7-6.6-4.3-10,0
			C24.4,105.9,27.5,105.9,31,101.4z M97,104.6c-5,3.8-4.1,7,0,10C101.1,111.3,101.9,108.7,97,104.6z"/>
		<path class="st3" d="M85.1,31.3c0-1.2,0.9-2.1,2.1-2.2c1.2,0,2.2,1,2.2,2.2c0,1.1-1,2.1-2.1,2.1C86.1,33.4,85.1,32.5,85.1,31.3z"
			/>
		<path class="st5" d="M34.3,35.5c-4.8-3.9-4.3-6.5-0.1-10C38,28.3,39.5,31.3,34.3,35.5z"/>
		<path class="st5" d="M100.2,38.7c3.5-4.5,6.5-4.5,10,0C107,42.8,104.1,43.6,100.2,38.7z"/>
		<path class="st5" d="M31,101.4c-3.5,4.5-6.6,4.5-10,0C24.4,97.1,27.3,96.7,31,101.4z"/>
		<path class="st5" d="M97,104.6c4.9,4.1,4,6.7,0,10C92.9,111.6,92,108.4,97,104.6z"/>
	</g>
</g>
</svg>
